<svg id="Layer_1" data-name="Layer 1" xmlns="http://www.w3.org/2000/svg" viewBox="0 0 150 80"><defs><style>.cls-1{fill:#3c3c50;}</style></defs><title>roker</title><path class="cls-1" d="M20.67,43.3c-1.38,4.43-6.8,29.88-7.92,36-0.14.74-.48,0.88-1.08,0.5C10.46,79,9.3,77.05,9.57,73.13c0.42-6.61,9.33-43,13.53-53.76-2.46.28-21.63,8.44-22.81,7.1-0.5-.61-0.36-1,0.53-1.33,5.81-1.89,27.51-13.88,32.22-15,3.59-.87,6.93-0.47,9.64,3.85A12.4,12.4,0,0,1,43,26.2c-2.76,5.72-9.49,11.6-17,15M25.11,27c-1,3.75-1.83,7.11-3,10.87,15-6.54,20.8-18.19,17.69-22.65-2.39-3.53-8.06.84-12.47,3C26.64,20.81,26.1,23.13,25.11,27Z"/><path class="cls-1" d="M63.39,37.75c0.3,6.14-2,14.19-6.6,17.35-2.25,1.53-5.81,2.26-9.66-.43-4.26-3-5-9.17-3.55-15.45,1.23-5.33,4.26-10.46,8.35-11.93,2.11-.76,3.48-0.49,5.43.92,2.24,1.62,4.47,1.49,5.54,6.45,0.1,0.56.24,1,.34,1.59,4-.32,10.06-31.69,10.61-31.85s0.59,0.2.42,0.61C73.94,5.69,69.67,37.24,63.39,37.75Zm-6.42,0a8.87,8.87,0,0,1-5-5,24.13,24.13,0,0,0-3.4,7.86c-1.34,6-.48,12.44,1.79,13.39,2.42,1,5.93-2.59,7.43-9.76a35.93,35.93,0,0,0,.77-6.08A5.64,5.64,0,0,1,57,37.77Zm0.52-6.67c-1-2.05-2.28-1.25-2,.8a5.77,5.77,0,0,0,3,4.33A13.06,13.06,0,0,0,57.48,31.11Z"/><path class="cls-1" d="M78.93,17.43c2.42-1.57,4.38-1,6.56,1.51a6.5,6.5,0,0,1,.7,8.31,23.24,23.24,0,0,1-8.23,8c1.8,5.49,4.8,8.58,7.56,8.44,8.15-.42,17.38-18.11,18.93-22.88,0.37-1,.75-1.72,1.32-1s3.08,2.67,2.49,4.64C107.08,27.68,95.91,45.43,85,46c-5.07.26-10.11-1.61-12.48-10.8-0.33-1.22-.25-1.46,1-2.21,7.92-5,10.93-12.1,9.4-13.59-1.1-1-4,.51-6.93,4.25-4.19,5.21-5.71,12-7.69,25.85-0.06.6-.58,0.88-1.22,0.46-1.37-.88-1.31-2.09-1.12-6.57,0.27-6.67,4.47-31.9,8.46-41.71,0.41-1,1.4-2.16,2-1.45C78.06,2,78,4.76,76.43,10.47c-0.92,3.21-1.69,8.63-2.68,12.43A17.28,17.28,0,0,1,78.93,17.43Z"/><path class="cls-1" d="M103.56,23c1.6-3.21,2.4-7.12,1.33-7.72-1.81-1-6.87,4.3-9,11.21,0,0-4,13,4.39,13.29,7.92-1,13.79-13.24,16.13-22.68-5.9-1.28-.57-11.66,2.41-12.3,2.2-.44,2.25,3.89,1.28,8.69,2.44-.77,6.92-4.42,9.38-6.69,0.76-.7,1.34-1.15,2-0.55,1.7,1.28,4.09,4.29,2.36,6.94-2.7,4.16-7.68,11.6-8.22,15.53s0.83,6.62,3,6.33c3-.37,5.84-5.55,7.2-11.05,0.19-.6.66-0.82,1.06-0.25a6.12,6.12,0,0,1,.46,4.55c-1,4.45-4.74,8.35-8.71,8.81-5.48.64-8.47-3.69-7.7-9.59,0.66-4.88,6.21-12.84,8.67-16.68-2.79,2.47-8.07,5.82-10.28,6.2-3.75,13-9.88,23-18.35,24.62-9,1.68-13.66-6.37-10.62-16,2.95-9.33,9.53-14.44,13.46-13a13.38,13.38,0,0,1,4.85,2.81c1.51,1.45,1.54,5.65-.68,9.66"/><path class="cls-1" d="M144.83,28.08c1.53,0.11,2.43,1.77,2.17,3.8s-1.81,3.51-3.34,3.4-2.49-2-2.17-3.8C141.82,29.43,143.29,28,144.83,28.08Z"/><path class="cls-1" d="M29.38,36.11a7.14,7.14,0,0,1,4.93,1.42,11.62,11.62,0,0,1,3.47,6.05C39,47.94,39.16,54.41,39.31,56.8s0.8,10.31,23.91,1.91c50.73-18.44,73-20.12,85.56-16.07,2.79,0.9.26,6.11-2.26,5.81q-2.26-.27-4.53-0.4c-13.73-.78-27.58,1.6-40.92,4.54-13.12,2.89-26,6.64-38.83,10.59C56.78,64.87,50.93,67,45.06,66.84s-8.95-3.63-10.47-7.62c-1.67-4.37-.59-8.79-2-13.24A13.2,13.2,0,0,0,32,44.37c0.19,0.41-.11-0.17-0.18-0.29a6.39,6.39,0,0,0-.38-0.55C31.29,43.34,31.13,43.17,31,43c-0.3-.35.17,0.09-0.11-0.1a6.74,6.74,0,0,0-1-.61,2,2,0,0,1-.42-0.18c0.27,0.08-.21,0-0.31-0.07a7,7,0,0,0-1.21-.13c-0.24,0-.47,0-0.71,0s0.16,0,.17,0l-0.33,0c-0.45.07-.9,0.15-1.34,0.25l-1.39.4h0c-2.4.73-13.66,3.78-14.84,2.44C9,44.42,9.11,44,10,43.71c5.81-1.89,14.38-7.52,19.09-8.69"/></svg>